<svg width="100" height="119" viewBox="0 0 100 119" fill="none" xmlns="http://www.w3.org/2000/svg">
<rect width="100" height="119" fill="white"/>
<path fill-rule="evenodd" clip-rule="evenodd" d="M75 87.425L50 100L25 87.425L0 100V12.576L25 0L50 12.576L75 0L100 12.576V100L75 87.425Z" fill="#F2F2F2"/>
<path d="M15 59.9999V31.9999L24.988 26.9939L50 40.9999L75 28.9999L87 32.9999" stroke="#6BC9F2" stroke-width="4" stroke-miterlimit="10"/>
<path d="M15 61V53L25 48L50 61L75 50L87 45V32" stroke="#E64C3C" stroke-width="4" stroke-miterlimit="10"/>
<path d="M15 61L50 79L67 71V43L87 33" stroke="#F29C1F" stroke-width="4" stroke-miterlimit="10"/>
<path fill-rule="evenodd" clip-rule="evenodd" d="M87 36.5C85.07 36.5 83.5 34.93 83.5 33C83.5 31.07 85.07 29.5 87 29.5C88.93 29.5 90.5 31.07 90.5 33C90.5 34.93 88.93 36.5 87 36.5Z" fill="white"/>
<path d="M87 31C88.103 31 89 31.897 89 33C89 34.103 88.103 35 87 35C85.897 35 85 34.103 85 33C85 31.897 85.897 31 87 31ZM87 28C86.3433 28.0001 85.6931 28.1295 85.0864 28.3808C84.4798 28.6322 83.9285 29.0006 83.4643 29.465C82.5266 30.4028 81.9999 31.6748 82 33.001C82.0001 34.3272 82.5271 35.5991 83.465 36.5367C84.4028 37.4744 85.6748 38.0011 87.001 38.001C88.3272 38.0009 89.5991 37.4739 90.5367 36.536C91.4744 35.5982 92.0011 34.3262 92.001 33C92.0009 31.6738 91.4739 30.4019 90.536 29.4643C89.5982 28.5266 88.3262 27.9999 87 28V28Z" fill="#2980BA"/>
<path fill-rule="evenodd" clip-rule="evenodd" d="M15 64.5C13.07 64.5 11.5 62.93 11.5 61C11.5 59.07 13.07 57.5 15 57.5C16.93 57.5 18.5 59.07 18.5 61C18.5 62.93 16.93 64.5 15 64.5Z" fill="white"/>
<path d="M15 59C16.103 59 17 59.897 17 61C17 62.103 16.103 63 15 63C13.897 63 13 62.103 13 61C13 59.897 13.897 59 15 59ZM15 56C14.3433 56.0001 13.6931 56.1295 13.0864 56.3808C12.4798 56.6322 11.9286 57.0006 11.4643 57.465C11 57.9294 10.6317 58.4806 10.3804 59.0874C10.1292 59.6941 9.99993 60.3443 10 61.001C10.0001 61.6577 10.1295 62.3079 10.3808 62.9146C10.6322 63.5212 11.0006 64.0725 11.465 64.5367C11.9294 65.001 12.4806 65.3693 13.0874 65.6206C13.6941 65.8718 14.3443 66.0011 15.001 66.001C16.3272 66.0009 17.5991 65.4739 18.5367 64.536C19.4744 63.5982 20.0011 62.3262 20.001 61C20.0009 59.6738 19.4739 58.4019 18.536 57.4643C17.5982 56.5266 16.3262 55.9999 15 56V56Z" fill="#2980BA"/>
<path opacity="0.15" fill-rule="evenodd" clip-rule="evenodd" d="M0 100L25 87.424V0L0 12.576V100ZM50 12.576V100L75 87.424V0L50 12.576V12.576Z" fill="#2C3E50"/>
<path d="M86.6122 28.75C88.8101 28.75 90.5918 27.0711 90.5918 25C90.5918 22.9289 88.8101 21.25 86.6122 21.25C84.4144 21.25 82.6327 22.9289 82.6327 25C82.6327 27.0711 84.4144 28.75 86.6122 28.75Z" fill="white"/>
<path d="M86.6122 15C83.7977 15 81.0984 16.0536 79.1083 17.9289C77.1181 19.8043 76 22.3478 76 25C76 27.365 76.5333 28.9125 77.9898 30.625L86.6122 40L95.2347 30.625C96.6912 28.9125 97.2245 27.365 97.2245 25C97.2245 22.3478 96.1064 19.8043 94.1162 17.9289C92.1261 16.0536 89.4268 15 86.6122 15Z" fill="white"/>
<path d="M86.6122 28.75C88.8101 28.75 90.5918 27.0711 90.5918 25C90.5918 22.9289 88.8101 21.25 86.6122 21.25C84.4144 21.25 82.6327 22.9289 82.6327 25C82.6327 27.0711 84.4144 28.75 86.6122 28.75Z" stroke="#3880FF" stroke-width="2" stroke-linecap="round" stroke-linejoin="round"/>
<path d="M86.6122 15C83.7977 15 81.0984 16.0536 79.1083 17.9289C77.1181 19.8043 76 22.3478 76 25C76 27.365 76.5333 28.9125 77.9898 30.625L86.6122 40L95.2347 30.625C96.6912 28.9125 97.2245 27.365 97.2245 25C97.2245 22.3478 96.1064 19.8043 94.1162 17.9289C92.1261 16.0536 89.4268 15 86.6122 15Z" stroke="#3880FF" stroke-width="2" stroke-linecap="round" stroke-linejoin="round"/>
<path d="M31.336 108.576L29.14 117H26.656L25.312 111.456L23.92 117H21.436L19.3 108.576H21.496L22.708 114.708L24.208 108.576H26.464L27.904 114.708L29.128 108.576H31.336ZM36.4811 110.232C37.2491 110.232 37.8651 110.488 38.3291 111C38.7931 111.504 39.0251 112.2 39.0251 113.088V117H36.9851V113.364C36.9851 112.916 36.8691 112.568 36.6371 112.32C36.4051 112.072 36.0931 111.948 35.7011 111.948C35.3091 111.948 34.9971 112.072 34.7651 112.32C34.5331 112.568 34.4171 112.916 34.4171 113.364V117H32.3651V108.12H34.4171V111.204C34.6251 110.908 34.9091 110.672 35.2691 110.496C35.6291 110.32 36.0331 110.232 36.4811 110.232ZM46.763 113.544C46.763 113.736 46.751 113.936 46.727 114.144H42.083C42.115 114.56 42.247 114.88 42.479 115.104C42.719 115.32 43.011 115.428 43.355 115.428C43.867 115.428 44.223 115.212 44.423 114.78H46.607C46.495 115.22 46.291 115.616 45.995 115.968C45.707 116.32 45.343 116.596 44.903 116.796C44.463 116.996 43.971 117.096 43.427 117.096C42.771 117.096 42.187 116.956 41.675 116.676C41.163 116.396 40.763 115.996 40.475 115.476C40.187 114.956 40.043 114.348 40.043 113.652C40.043 112.956 40.183 112.348 40.463 111.828C40.751 111.308 41.151 110.908 41.663 110.628C42.175 110.348 42.763 110.208 43.427 110.208C44.075 110.208 44.651 110.344 45.155 110.616C45.659 110.888 46.051 111.276 46.331 111.78C46.619 112.284 46.763 112.872 46.763 113.544ZM44.663 113.004C44.663 112.652 44.543 112.372 44.303 112.164C44.063 111.956 43.763 111.852 43.403 111.852C43.059 111.852 42.767 111.952 42.527 112.152C42.295 112.352 42.151 112.636 42.095 113.004H44.663ZM49.8976 111.42C50.1376 111.052 50.4376 110.764 50.7976 110.556C51.1576 110.34 51.5576 110.232 51.9976 110.232V112.404H51.4336C50.9216 112.404 50.5376 112.516 50.2816 112.74C50.0256 112.956 49.8976 113.34 49.8976 113.892V117H47.8456V110.304H49.8976V111.42ZM59.2904 113.544C59.2904 113.736 59.2784 113.936 59.2544 114.144H54.6104C54.6424 114.56 54.7744 114.88 55.0064 115.104C55.2464 115.32 55.5384 115.428 55.8824 115.428C56.3944 115.428 56.7504 115.212 56.9504 114.78H59.1344C59.0224 115.22 58.8184 115.616 58.5224 115.968C58.2344 116.32 57.8704 116.596 57.4304 116.796C56.9904 116.996 56.4984 117.096 55.9544 117.096C55.2984 117.096 54.7144 116.956 54.2024 116.676C53.6904 116.396 53.2904 115.996 53.0024 115.476C52.7144 114.956 52.5704 114.348 52.5704 113.652C52.5704 112.956 52.7104 112.348 52.9904 111.828C53.2784 111.308 53.6784 110.908 54.1904 110.628C54.7024 110.348 55.2904 110.208 55.9544 110.208C56.6024 110.208 57.1784 110.344 57.6824 110.616C58.1864 110.888 58.5784 111.276 58.8584 111.78C59.1464 112.284 59.2904 112.872 59.2904 113.544ZM57.1904 113.004C57.1904 112.652 57.0704 112.372 56.8304 112.164C56.5904 111.956 56.2904 111.852 55.9304 111.852C55.5864 111.852 55.2944 111.952 55.0544 112.152C54.8224 112.352 54.6784 112.636 54.6224 113.004H57.1904ZM66.4329 108.576V110.22H64.2009V117H62.1489V110.22H59.9169V108.576H66.4329ZM70.5108 117.096C69.8548 117.096 69.2628 116.956 68.7348 116.676C68.2148 116.396 67.8028 115.996 67.4988 115.476C67.2028 114.956 67.0548 114.348 67.0548 113.652C67.0548 112.964 67.2068 112.36 67.5107 111.84C67.8148 111.312 68.2308 110.908 68.7588 110.628C69.2868 110.348 69.8788 110.208 70.5348 110.208C71.1908 110.208 71.7828 110.348 72.3108 110.628C72.8388 110.908 73.2548 111.312 73.5588 111.84C73.8628 112.36 74.0148 112.964 74.0148 113.652C74.0148 114.34 73.8588 114.948 73.5468 115.476C73.2428 115.996 72.8228 116.396 72.2868 116.676C71.7588 116.956 71.1668 117.096 70.5108 117.096ZM70.5108 115.32C70.9028 115.32 71.2348 115.176 71.5068 114.888C71.7868 114.6 71.9268 114.188 71.9268 113.652C71.9268 113.116 71.7908 112.704 71.5188 112.416C71.2548 112.128 70.9268 111.984 70.5348 111.984C70.1348 111.984 69.8028 112.128 69.5388 112.416C69.2748 112.696 69.1428 113.108 69.1428 113.652C69.1428 114.188 69.2708 114.6 69.5268 114.888C69.7908 115.176 70.1188 115.32 70.5108 115.32ZM77.5634 108.108C78.4194 108.108 79.1034 108.332 79.6154 108.78C80.1354 109.228 80.3954 109.86 80.3954 110.676C80.3954 111.428 80.1474 112.016 79.6514 112.44C79.1634 112.856 78.5154 113.068 77.7074 113.076L77.6474 113.976H75.8474L75.7874 111.744H76.5074C77.1234 111.744 77.5914 111.668 77.9114 111.516C78.2394 111.364 78.4034 111.088 78.4034 110.688C78.4034 110.408 78.3274 110.188 78.1754 110.028C78.0234 109.868 77.8114 109.788 77.5394 109.788C77.2514 109.788 77.0274 109.872 76.8674 110.04C76.7074 110.2 76.6274 110.42 76.6274 110.7H74.6954C74.6794 110.212 74.7794 109.772 74.9954 109.38C75.2194 108.988 75.5474 108.68 75.9794 108.456C76.4194 108.224 76.9474 108.108 77.5634 108.108ZM76.7714 117.096C76.4114 117.096 76.1154 116.992 75.8834 116.784C75.6594 116.568 75.5474 116.304 75.5474 115.992C75.5474 115.672 75.6594 115.404 75.8834 115.188C76.1154 114.972 76.4114 114.864 76.7714 114.864C77.1234 114.864 77.4114 114.972 77.6354 115.188C77.8674 115.404 77.9834 115.672 77.9834 115.992C77.9834 116.304 77.8674 116.568 77.6354 116.784C77.4114 116.992 77.1234 117.096 76.7714 117.096Z" fill="#3880FF"/>
</svg>
